<?xml version="1.0" encoding="UTF-8"?>
<svg width="70.224mm" height="14.808mm" version="1.1" viewBox="0 0 70.224 14.808" xmlns="http://www.w3.org/2000/svg">
    <style/>
    <g transform="translate(-16.53 -88.077)" style="fill:white">
        <path transform="matrix(.26458 0 0 .26458 16.53 88.077)"
              d="m12.154 20.51c-1.0175 0.59618-1.9108 1.2815-2.541 2.1562-0.85937 1.1979-1.2891 2.5651-1.2891 4.1016 0 2.9557 1.6146 5.306 4.8438 7.0508 1.1849 0.63802 2.793 1.2891 4.8242 1.9531 2.0312 0.65104 3.4375 1.276 4.2188 1.875 0.78125 0.58594 1.1719 1.4323 1.1719 2.5391 0 1.0156-0.39063 1.8099-1.1719 2.3828-0.78125 0.55989-1.8685 0.83984-3.2617 0.83984-3.75 0-5.625-1.569-5.625-4.707h-5.8789c0 1.8359 0.46875 3.4505 1.4062 4.8438 0.95052 1.3932 2.3242 2.4935 4.1211 3.3008 1.7969 0.79428 3.7891 1.1914 5.9766 1.1914 3.151 0 5.6576-0.69661 7.5195-2.0898 1.862-1.4062 2.793-3.3399 2.793-5.8008 0-2.2135-0.76172-4.0625-2.2852-5.5469-1.5234-1.4844-3.9518-2.7279-7.2852-3.7305-1.8099-0.54687-3.1836-1.1328-4.1211-1.7578-0.92447-0.625-1.3867-1.3997-1.3867-2.3242 0-0.98958 0.39714-1.7839 1.1914-2.3828 0.79427-0.61198 1.9076-0.91797 3.3398-0.91797 1.4844 0 2.6367 0.36459 3.457 1.0938 0.82031 0.71614 1.2305 1.7253 1.2305 3.0273h5.8594c0-1.7057-0.44271-3.2292-1.3281-4.5703-0.87239-1.3411-2.1029-2.3763-3.6914-3.1055-0.09439-0.0441-0.20678-0.05813-0.30274-0.09961l-6.6055 3.1328z"
              style="font-variant-caps:normal;font-variant-east-asian:normal;font-variant-ligatures:normal;font-variant-numeric:normal"/>
        <path d="m27.549 99.583q0.41341 0 0.67179-0.22738 0.25838-0.22738 0.26872-0.60461h1.4004q-0.0052 0.56844-0.31006 1.0439-0.30489 0.47025-0.83716 0.7338-0.5271 0.25839-1.1679 0.25839-1.1989 0-1.8914-0.75965-0.69246-0.7648-0.69246-2.1084v-0.09818q0-1.2919 0.6873-2.0619 0.68729-0.76998 1.8862-0.76998 1.049 0 1.6795 0.59944 0.63562 0.59428 0.64595 1.5865h-1.4004q-0.01034-0.43408-0.26872-0.7028-0.25838-0.27388-0.68213-0.27388-0.52193 0-0.79065 0.3824-0.26355 0.37724-0.26355 1.2299v0.15503q0 0.86299 0.26355 1.2402 0.26355 0.37724 0.80098 0.37724z"
              style="font-variant-caps:normal;font-variant-east-asian:normal;font-variant-ligatures:normal;font-variant-numeric:normal"/>
        <path d="m32.199 95.702q0.59428-0.71313 1.4934-0.71313 1.819 0 1.8448 2.1136v3.5812h-1.4934v-3.5398q0-0.48059-0.2067-0.70796-0.2067-0.23254-0.68729-0.23254-0.65629 0-0.95084 0.50643v3.9739h-1.4934v-7.9375h1.4934z"
              style="font-variant-caps:normal;font-variant-east-asian:normal;font-variant-ligatures:normal;font-variant-numeric:normal"/>
        <path d="m40.013 100.11q-0.55294 0.6718-1.5296 0.6718-0.89917 0-1.3746-0.51677-0.47025-0.51676-0.48059-1.5141v-3.6638h1.4934v3.6122q0 0.87333 0.79581 0.87333 0.75964 0 1.0439-0.5271v-3.9584h1.4986v5.5914h-1.4056z"
              style="font-variant-caps:normal;font-variant-east-asian:normal;font-variant-ligatures:normal;font-variant-numeric:normal"/>
        <path d="m44.162 100.68h-1.4986v-7.9375h1.4986z"
              style="font-variant-caps:normal;font-variant-east-asian:normal;font-variant-ligatures:normal;font-variant-numeric:normal"/>
        <path d="m46.793 95.092 0.04651 0.62528q0.59428-0.72864 1.6071-0.72864 1.08 0 1.4831 0.85266 0.58911-0.85266 1.6795-0.85266 0.9095 0 1.3539 0.53226 0.44442 0.5271 0.44442 1.5916v3.5708h-1.4986v-3.5657q0-0.47542-0.18603-0.69246-0.18604-0.22221-0.65629-0.22221-0.67179 0-0.93017 0.64079l0.0052 3.8395h-1.4934v-3.5605q0-0.48576-0.1912-0.7028-0.1912-0.21704-0.65112-0.21704-0.63562 0-0.91984 0.5271v3.9532h-1.4935v-5.5914z"
              style="font-variant-caps:normal;font-variant-east-asian:normal;font-variant-ligatures:normal;font-variant-numeric:normal"/>
        <path d="m57.795 100.68q-0.10335-0.20153-0.14986-0.50126-0.5426 0.60462-1.4108 0.60462-0.82165 0-1.3643-0.47543-0.53743-0.47542-0.53743-1.1989 0-0.88883 0.65629-1.3643 0.66146-0.47542 1.9069-0.48059h0.68729v-0.32039q0-0.38757-0.20154-0.62012-0.19637-0.23254-0.62528-0.23254-0.37724 0-0.59428 0.18087-0.21187 0.18087-0.21187 0.49609h-1.4934q0-0.48576 0.29972-0.89917t0.84749-0.64595q0.54777-0.23771 1.2299-0.23771 1.0335 0 1.6381 0.52193 0.60978 0.51676 0.60978 1.4573v2.4236q0.0052 0.79581 0.22221 1.2041v0.0879zm-1.2351-1.0387q0.33073 0 0.60978-0.14469 0.27905-0.14986 0.41341-0.39791v-0.96118h-0.5581q-1.1214 0-1.1937 0.77514l-0.0052 0.08785q0 0.27905 0.19637 0.45992 0.19637 0.18087 0.53743 0.18087z"
              style="font-variant-caps:normal;font-variant-east-asian:normal;font-variant-ligatures:normal;font-variant-numeric:normal"/>
        <path d="m61.603 95.092 0.04651 0.64595q0.59944-0.74931 1.6071-0.74931 0.88883 0 1.3229 0.52193 0.43408 0.52193 0.44442 1.5606v3.6122h-1.4934v-3.576q0-0.47542-0.2067-0.6873-0.2067-0.21704-0.68729-0.21704-0.63045 0-0.94568 0.53743v3.9429h-1.4934v-5.5914z"
              style="font-variant-caps:normal;font-variant-east-asian:normal;font-variant-ligatures:normal;font-variant-numeric:normal"/>
        <path d="m69.396 100.68q-0.10335-0.20153-0.14986-0.50126-0.5426 0.60462-1.4108 0.60462-0.82165 0-1.3643-0.47543-0.53743-0.47542-0.53743-1.1989 0-0.88883 0.65629-1.3643 0.66146-0.47542 1.9069-0.48059h0.68729v-0.32039q0-0.38757-0.20154-0.62012-0.19637-0.23254-0.62528-0.23254-0.37724 0-0.59428 0.18087-0.21187 0.18087-0.21187 0.49609h-1.4934q0-0.48576 0.29972-0.89917 0.29972-0.41341 0.84749-0.64595 0.54777-0.23771 1.2299-0.23771 1.0335 0 1.6381 0.52193 0.60978 0.51676 0.60978 1.4573v2.4236q0.0052 0.79581 0.22221 1.2041v0.0879zm-1.2351-1.0387q0.33073 0 0.60978-0.14469 0.27905-0.14986 0.41341-0.39791v-0.96118h-0.5581q-1.1214 0-1.1937 0.77514l-0.0052 0.08785q0 0.27905 0.19637 0.45992t0.53743 0.18087z"
              style="font-variant-caps:normal;font-variant-east-asian:normal;font-variant-ligatures:normal;font-variant-numeric:normal"/>
        <path d="m71.613 97.846q0-1.2867 0.60978-2.0722 0.61495-0.78548 1.6536-0.78548 0.91984 0 1.4314 0.63045l0.062011-0.5271h1.3539v5.4053q0 0.7338-0.3359 1.2764-0.33073 0.5426-0.93534 0.82682-0.60461 0.28422-1.4159 0.28422-0.61495 0-1.1989-0.24804-0.58394-0.24288-0.88366-0.63046l0.66146-0.9095q0.5581 0.62529 1.3539 0.62529 0.59428 0 0.925-0.3204 0.33073-0.31522 0.33073-0.89916v-0.29973q-0.51676 0.58395-1.3591 0.58395-1.0077 0-1.633-0.78548-0.62012-0.79065-0.62012-2.0929zm1.4934 0.10852q0 0.75964 0.30489 1.1937 0.30489 0.42891 0.83716 0.42891 0.68213 0 0.97668-0.5116v-2.3513q-0.29972-0.5116-0.96635-0.5116-0.53743 0-0.84749 0.43925-0.30489 0.43925-0.30489 1.3126z"
              style="font-variant-caps:normal;font-variant-east-asian:normal;font-variant-ligatures:normal;font-variant-numeric:normal"/>
        <path d="m80.444 100.79q-1.2299 0-2.005-0.75448-0.76998-0.75447-0.76998-2.0102v-0.14469q0-0.84232 0.32556-1.5038 0.32556-0.66662 0.91984-1.0232 0.59944-0.36173 1.3643-0.36173 1.1472 0 1.8035 0.72347 0.66146 0.72347 0.66146 2.0515v0.60978h-3.5605q0.07235 0.54777 0.43408 0.8785 0.3669 0.33073 0.925 0.33073 0.86299 0 1.3488-0.62528l0.7338 0.82165q-0.3359 0.47542-0.9095 0.74414-0.57361 0.26355-1.2712 0.26355zm-0.17053-4.5889q-0.44442 0-0.72347 0.29972-0.27388 0.29972-0.3514 0.85783h2.0774v-0.11886q-0.01033-0.49609-0.26872-0.76481-0.25838-0.27388-0.7338-0.27388z"
              style="font-variant-caps:normal;font-variant-east-asian:normal;font-variant-ligatures:normal;font-variant-numeric:normal"/>
        <path d="m86.733 96.492q-0.30489-0.04134-0.53743-0.04134-0.84749 0-1.111 0.57361v3.6587h-1.4934v-5.5914h1.4108l0.04134 0.66662q0.44958-0.76998 1.2454-0.76998 0.24805 0 0.46509 0.06718z"
              style="font-variant-caps:normal;font-variant-east-asian:normal;font-variant-ligatures:normal;font-variant-numeric:normal"/>
        <path d="m23.586 92.804-2.4694 1.1712-2.4694-1.1712v-1.0372l2.4694 1.1642 2.4694-1.1642z"
              style="font-variant-caps:normal;font-variant-east-asian:normal;font-variant-ligatures:normal;font-variant-numeric:normal;mix-blend-mode:normal;paint-order:stroke fill markers"/>
        <path d="m25.66 90.073-4.5014 1.9967-2.667-1.1994-0.55033 0.42333v1.5804l0.70556 1.0583v1.4041l-1.0583-1.0442-1.0583 1.0513v-1.4111l0.70556-1.0583v-1.7639q0-0.02822-0.0071-0.07056 0-0.04939 0-0.07056 0.0071-0.02117 0.0071-0.05644 0.0071-0.03528 0.02117-0.05644 0.02117-0.02117 0.04939-0.04233l0.33161-0.28222-1.0372-0.45861 4.5297-1.9967z"
              style="font-variant-caps:normal;font-variant-east-asian:normal;font-variant-ligatures:normal;font-variant-numeric:normal;mix-blend-mode:normal;paint-order:normal"/>
    </g>
</svg>
